PathFileType	4	(X/Y/Z)	C:\Users\willi\Desktop\Data_PaperCallum_v2\17_Akif\Gait05\marker_experimental_temp.trc
DataRate	CameraRate	NumFrames	NumMarkers	Units	OrigDataRate	OrigDataStartFrame	OrigNumFrames
100.000000	100.000000	4	27	mm	100.000000	0	213
Frame#	Time	C7			T10			Clav			Sternum			Right_Back			PCL_CRAN			PCL_RECHTS			PCL_LINKS			RCL_UL_CRAN			RCL_UL_POST			RCL_UL_ANT			RCL_LL_CRAN			RCL_LL_POST			RCL_LL_ANT			Right_Heel			Right_Toe			Right_M5			LCL_UL_CRAN			LCL_UL_POST			LCL_UL_ANT			LCL_LL_CRAN			LCL_LL_POST			LCL_LL_ANT			Left_Heel			Left_Toe			Left_M5			*26			
		X1	Y1	Z1	X2	Y2	Z2	X3	Y3	Z3	X4	Y4	Z4	X5	Y5	Z5	X6	Y6	Z6	X7	Y7	Z7	X8	Y8	Z8	X9	Y9	Z9	X10	Y10	Z10	X11	Y11	Z11	X12	Y12	Z12	X13	Y13	Z13	X14	Y14	Z14	X15	Y15	Z15	X16	Y16	Z16	X17	Y17	Z17	X18	Y18	Z18	X19	Y19	Z19	X20	Y20	Z20	X21	Y21	Z21	X22	Y22	Z22	X23	Y23	Z23	X24	Y24	Z24	X25	Y25	Z25	X26	Y26	Z26	X27	Y27	Z27	

1	0	1800.853149414063	1419.798217773438	144.9900512695311	1836.75439453125	1199.65771484375	146.6239166259764	1662.071655273438	1346.775390625	163.1494903564452	1602.36181640625	1184.067626953125	185.8924255371093	1827.577514648438	1353.210205078125	31.19959449768055	1823.531616210938	1030.901123046875	141.3542175292968	1829.851440429688	971.8726196289064	115.8394165039061	1835.340087890625	971.2279052734376	166.3087005615233	1687.617431640625	732.8583984375001	-12.30960655212413	1699.471801757813	668.5025634765626	-2.080289602279767	1652.078491210938	677.8676147460939	-9.621408462524515	1714.953735351563	375.9827270507814	32.52678298950185	1739.852905273438	315.7666625976564	29.52204895019521	1691.131591796875	315.554656982422	38.11796569824208	1789.434204101563	32.03718185424815	124.779815673828	1588.16845703125	35.72222900390635	133.438018798828	1630.619506835938	12.12260723114024	73.90306854248037	1701.815185546875	758.3865966796876	339.4321899414061	1701.03759765625	692.3984985351564	334.0598754882811	1657.582153320313	711.0332031250001	349.6446228027343	1711.794189453125	418.1402587890626	338.5155029296874	1765.440551757813	381.6864013671876	326.0431213378905	1724.708618164063	352.5061340332032	334.7430419921874	1963.020874023438	190.2470855712892	215.6624755859374	1816.883666992188	66.00075531005871	258.7302246093749	1870.8173828125	74.53079223632824	302.4960937499999	-88.01959991455102	726.5128784179688	-3209.58642578125	
2	0.01	1787.859985351563	1419.294189453125	144.4829864501952	1824.322143554688	1199.693115234375	146.3855133056639	1649.255493164063	1346.182983398438	163.1432800292968	1589.794555664063	1183.570434570313	185.4743041992187	1813.86181640625	1353.125854492188	30.21434974670399	1811.725830078125	1031.21044921875	142.1761169433593	1818.578979492188	972.0266723632814	116.9110412597655	1823.678466796875	971.5159912109376	167.3936309814452	1679.547485351563	732.5312500000001	-10.83970260620127	1692.983642578125	668.7059936523439	-1.193558692932233	1645.430786132813	677.1075439453126	-8.391902923584086	1714.72265625	376.4641418457032	33.01876068115224	1740.275146484375	316.420379638672	30.32383728027333	1691.350219726563	315.817108154297	38.58095550537099	1789.468505859375	32.3633041381837	125.0227890014647	1588.118896484375	35.74880599975596	133.3400878906249	1630.616333007813	12.07574367523203	73.83844757080068	1684.669189453125	760.9956054687501	340.1635131835936	1682.1552734375	695.2375488281251	335.3551025390624	1638.83203125	714.9580688476564	349.6832580566405	1686.1728515625	417.3229064941407	338.1588134765624	1738.364379882813	378.7120361328126	326.015411376953	1696.14990234375	351.838104248047	334.6605529785155	1927.54345703125	174.4516601562501	216.0694732666014	1773.361694335938	61.5791244506837	262.765411376953	1828.172607421875	67.77982330322277	305.9548339843749	-88.0213775634768	726.5133666992188	-3209.592529296875	
3	0.02	1774.828247070313	1418.62890625	144.0581665039061	1811.818237304688	1199.52685546875	146.2493896484374	1636.381103515625	1345.433349609375	163.2185974121093	1577.164306640625	1182.890258789063	185.1572265624999	1800.131713867188	1352.843872070313	29.33746910095204	1799.829345703125	1031.264038085938	143.0834655761718	1807.164184570313	971.9507446289064	118.0243453979491	1811.887573242188	971.5412597656251	168.5203399658202	1671.405883789063	732.1226806640626	-9.506720542907818	1686.307495117188	668.7866821289064	-0.3254635930062373	1638.58447265625	676.2576904296876	-7.188256740570169	1713.99755859375	376.8899841308595	33.56707763671864	1740.209716796875	317.050994873047	31.12017631530751	1691.1162109375	316.0213623046876	39.06439590454091	1789.482788085938	32.70195007324229	125.3758316040038	1588.051147460938	35.75754547119151	133.2579040527343	1630.621704101563	12.03536510467539	73.79136657714834	1667.913940429688	763.0473022460939	340.8127441406249	1663.744262695313	697.5374145507814	336.4636840820311	1620.567993164063	718.2500610351564	349.6030273437499	1661.059936523438	416.202117919922	337.7083129882811	1711.463256835938	375.3479003906251	325.9877624511718	1667.857055664063	350.8777770996095	334.4179077148436	1890.568359375	158.8221588134767	216.7377319335936	1729.203247070313	57.71188354492198	266.5415649414061	1784.630249023438	61.38451766967784	309.2611694335936	-88.02313232421899	726.5137939453125	-3209.5986328125	
4	0.03	1761.758056640625	1417.802734375	143.715606689453	1799.242309570313	1199.159057617188	146.2154846191405	1623.448364257813	1344.526733398438	163.3754577636718	1564.470825195313	1182.027709960938	184.9412078857421	1786.386962890625	1352.364868164063	28.56897735595692	1787.841552734375	1031.062255859375	144.0759887695311	1795.606567382813	971.6451416015626	119.1791915893554	1799.966918945313	971.3043212890626	169.6887054443358	1663.19140625	731.6328125000001	-8.310021400451761	1679.442260742188	668.7451171875001	0.5238054394720957	1631.5390625	675.3187866210939	-6.012228488922219	1712.778930664063	377.2603149414064	34.17066574096669	1739.657470703125	317.6583251953126	31.91251945495595	1690.430541992188	316.1673889160157	39.56782531738271	1789.476196289063	33.05364990234386	125.8389282226561	1587.965087890625	35.74824523925791	133.1913299560546	1630.63623046875	12.00155925750742	73.76190185546865	1651.548950195313	764.5424804687501	341.380401611328	1645.808471679688	699.2971191406251	337.3855590820311	1602.792724609375	720.9076538085939	349.4054870605468	1636.455688476563	414.7802734375001	337.1638793945311	1684.738891601563	371.6008605957032	325.9586791992186	1639.835083007813	349.6334838867189	334.0202026367186	1852.10009765625	143.3831024169923	217.6678771972655	1684.413818359375	54.41527175903331	270.0609436035155	1740.194458007813	55.36270904541026	312.4166870117186	-88.02487945556665	726.5142211914063	-3209.604736328125	
